Coordinates
version=1
nRows=43
nColumns=12
inDegrees=yes

Units are S.I. units (second, meters, Newtons, ...)
Angles are in degrees

endheader
time	SC_y	SC_z	SC_x	AC_y	AC_z	AC_x	GH_y	GH_z	GH_yy	EL_x	PS_y
       0.0              -45.38          13.78          35.04          46.56          8.005         -13.91          14.51          6.363          177.4          92.82          106.5
   0.03565              -45.38          13.79          35.04          46.56          8.003          -13.9           14.5          6.374          177.4          92.82          106.5
    0.0713              -45.38          13.79          35.04          46.56            8.0          -13.9          14.49          6.386          177.4          92.83          106.5
    0.1069              -45.38          13.79          35.04          46.56          7.997          -13.9          14.48          6.399          177.4          92.83          106.5
    0.1426              -45.38           13.8          35.04          46.55          7.994         -13.89          14.46          6.412          177.4          92.84          106.5
    0.1782              -45.37           13.8          35.03          46.55           7.99         -13.89          14.45          6.426          177.3          92.85          106.5
    0.2139              -45.37           13.8          35.03          46.55          7.987         -13.88          14.44          6.442          177.3          92.85          106.5
    0.2495              -45.37          13.81          35.03          46.54          7.983         -13.88          14.42          6.458          177.3          92.86          106.5
    0.2852              -45.37          13.81          35.03          46.54          7.979         -13.87           14.4          6.475          177.3          92.87          106.5
    0.3208              -45.37          13.82          35.03          46.54          7.974         -13.87          14.39          6.494          177.2          92.88          106.5
    0.3565              -45.37          13.82          35.02          46.53           7.97         -13.86          14.37          6.514          177.2          92.89          106.5
    0.3921              -45.37          13.83          35.02          46.53          7.965         -13.85          14.35          6.536          177.2           92.9          106.5
    0.4278              -45.37          13.83          35.02          46.52          7.959         -13.85          14.33          6.559          177.1          92.91          106.5
    0.4634              -45.36          13.84          35.02          46.52          7.953         -13.84           14.3          6.584          177.1          92.92          106.5
    0.4991              -45.36          13.85          35.01          46.51          7.947         -13.83          14.28          6.611          177.0          92.93          106.5
    0.5347              -45.36          13.86          35.01          46.51           7.94         -13.82          14.25          6.641          177.0          92.94          106.5
    0.5704              -45.36          13.87           35.0           46.5          7.932         -13.81          14.22          6.673          176.9          92.96          106.5
     0.606              -45.36          13.87           35.0           46.5          7.924          -13.8          14.19          6.708          176.9          92.97          106.5
    0.6417              -45.35          13.88           35.0          46.49          7.915         -13.79          14.15          6.746          176.8          92.99          106.5
    0.6773              -45.35           13.9          34.99          46.48          7.905         -13.78          14.11          6.788          176.8          93.01          106.5
     0.713              -45.35          13.91          34.98          46.47          7.894         -13.76          14.07          6.834          176.7          93.03          106.5
    0.7486              -45.34          13.92          34.98          46.46          7.882         -13.75          14.02          6.885          176.6          93.05          106.5
    0.7843              -45.34          13.94          34.97          46.45          7.869         -13.73          13.97           6.94          176.5          93.08          106.5
    0.8199              -45.34          13.95          34.96          46.44          7.855         -13.71          13.91          7.002          176.4           93.1          106.5
    0.8556              -45.33          13.97          34.96          46.42          7.838         -13.69          13.84          7.071          176.3          93.14          106.5
    0.8912              -45.33          13.99          34.95          46.41           7.82         -13.67          13.77          7.148          176.2          93.17          106.5
    0.9269              -45.32          14.01          34.94          46.39            7.8         -13.64          13.69          7.234          176.1          93.21          106.5
    0.9625              -45.31          14.04          34.92          46.37          7.777         -13.61           13.6           7.33          175.9          93.25          106.5
    0.9982              -45.31          14.07          34.91          46.35          7.751         -13.58           13.5           7.44          175.7           93.3          106.5
     1.034               -45.3           14.1          34.89          46.33          7.722         -13.54          13.38          7.564          175.5          93.36          106.5
     1.069              -45.29          14.14          34.88           46.3          7.689          -13.5          13.25          7.705          175.3          93.42          106.5
     1.105              -45.28          14.18          34.86          46.27           7.65         -13.45           13.1          7.868          175.0          93.49          106.5
     1.141              -45.27          14.23          34.83          46.23          7.606          -13.4          12.92          8.055          174.7          93.58          106.5
     1.176              -45.25          14.29          34.81          46.19          7.555         -13.33          12.71          8.273          174.4          93.68          106.5
     1.212              -45.23          14.36          34.78          46.14          7.494         -13.25          12.47          8.528          174.0          93.79          106.5
     1.248              -45.21          14.44          34.74          46.08          7.423         -13.16          12.19          8.829          173.5          93.93          106.4
     1.283              -45.19          14.53          34.69          46.01          7.339         -13.05          11.86          9.186          173.0          94.09          106.4
     1.319              -45.16          14.64          34.64          45.93          7.238         -12.92          11.45          9.614          172.3          94.28          106.4
     1.355              -45.13          14.78          34.58          45.83          7.116         -12.77          10.97          10.13          171.5          94.51          106.4
      1.39              -45.08          14.95           34.5          45.71          6.967         -12.58          10.37          10.77          170.4           94.8          106.4
     1.426              -45.03          15.16           34.4          45.56          6.782         -12.34          9.636          11.55          169.2          95.15          106.3
     1.462              -44.97          15.41          34.28          45.37          6.552         -12.05           8.72          12.52          167.7          95.58          106.3
     1.497              -44.88          15.74          34.13          45.13          6.263         -11.68          7.567          13.75          165.7          96.13          106.3
